<svg xmlns="http://www.w3.org/2000/svg" viewBox="0 0 512 512" role="img" aria-label="Contra Reloj Rioplatense, 4 o más jugadores">
  <defs>
    <linearGradient id="bg" x1="0" x2="1" y1="0" y2="1"><stop offset="0" stop-color="#3a1b52"/><stop offset="1" stop-color="#1b0d29"/></linearGradient>
    <linearGradient id="gold" x1="0" x2="1"><stop offset="0" stop-color="#fff0b6"/><stop offset=".45" stop-color="#f5b301"/><stop offset="1" stop-color="#c77818"/></linearGradient>
    <linearGradient id="pink" x1="0" x2="1"><stop offset="0" stop-color="#ff75b0"/><stop offset="1" stop-color="#e5197c"/></linearGradient>
    <filter id="shadow"><feDropShadow dx="0" dy="12" stdDeviation="12" flood-opacity=".45"/></filter>
  </defs>
  <rect width="512" height="512" rx="112" fill="url(#bg)"/>
  <g filter="url(#shadow)">
    <circle cx="256" cy="220" r="116" fill="#f6efe2" stroke="url(#gold)" stroke-width="20"/>
    <circle cx="256" cy="220" r="82" fill="#291637"/>
    <path d="M256 220v-58M256 220l48 30" stroke="#f5b301" stroke-width="15" stroke-linecap="round"/>
    <circle cx="256" cy="220" r="11" fill="#37d6c0"/>
    <rect x="238" y="72" width="36" height="34" rx="10" fill="url(#pink)"/>
    <path d="M218 76h76" stroke="#f5b301" stroke-width="13" stroke-linecap="round"/>
    <g transform="translate(26 308)"><circle cx="45" cy="30" r="27" fill="#37d6c0"/><path d="M7 92c4-35 19-50 38-50s34 15 38 50" fill="#37d6c0"/></g>
    <g transform="translate(140 318)"><circle cx="45" cy="30" r="27" fill="#f5b301"/><path d="M7 92c4-35 19-50 38-50s34 15 38 50" fill="#f5b301"/></g>
    <g transform="translate(254 318)"><circle cx="45" cy="30" r="27" fill="#e5197c"/><path d="M7 92c4-35 19-50 38-50s34 15 38 50" fill="#e5197c"/></g>
    <g transform="translate(368 308)"><circle cx="45" cy="30" r="27" fill="#f6efe2"/><path d="M7 92c4-35 19-50 38-50s34 15 38 50" fill="#f6efe2"/></g>
    <g transform="translate(352 54)">
      <circle cx="54" cy="54" r="50" fill="#e5197c" stroke="#ffe39a" stroke-width="8"/>
      <text x="54" y="71" text-anchor="middle" font-family="'Archivo Black','Arial Black',Arial,sans-serif" font-size="48" font-weight="900" fill="#fff">4+</text>
    </g>
  </g>
</svg>
