<svg xmlns="http://www.w3.org/2000/svg" viewBox="0 0 512 512">
  <defs><radialGradient id="b" cx="35%" cy="22%" r="80%"><stop stop-color="#37d6c0"/><stop offset=".48" stop-color="#27138a"/><stop offset="1" stop-color="#110718"/></radialGradient><linearGradient id="s" x1="0" x2="1" y1="0" y2="1"><stop stop-color="#eeb27e"/><stop offset="1" stop-color="#8a492b"/></linearGradient></defs>
  <circle cx="256" cy="256" r="250" fill="url(#b)"/><circle cx="256" cy="256" r="228" fill="none" stroke="#f5b301" stroke-width="12"/>
  <path fill="#11111b" d="M121 439c21-85 72-132 135-132s114 47 135 132z"/><path fill="#e5197c" d="M182 438c9-54 37-86 74-86s65 32 74 86z"/>
  <circle cx="256" cy="235" r="88" fill="url(#s)"/><path fill="#141015" d="M150 221c1-82 51-132 112-130 60 2 98 45 101 106-42-24-80-21-113-35-34 19-62 41-100 59z"/>
  <path fill="#35f05a" d="M180 116c49-43 121-38 160 12-60-18-104-5-160-12z"/>
  <circle cx="221" cy="246" r="9" fill="#160b24"/><circle cx="292" cy="246" r="9" fill="#160b24"/><path fill="none" stroke="#612e1b" stroke-linecap="round" stroke-width="9" d="M230 291c18 13 36 13 54 0"/>
  <circle cx="151" cy="365" r="30" fill="#f6efe2"/><circle cx="361" cy="365" r="30" fill="#f6efe2"/>
</svg>
