<svg xmlns="http://www.w3.org/2000/svg" viewBox="0 0 512 512">
  <defs><radialGradient id="b" cx="65%" cy="20%" r="78%"><stop stop-color="#ff5bd8"/><stop offset=".5" stop-color="#6817d6"/><stop offset="1" stop-color="#120821"/></radialGradient><linearGradient id="s" x1="0" x2="1" y1="0" y2="1"><stop stop-color="#ffd5a0"/><stop offset="1" stop-color="#b66538"/></linearGradient></defs>
  <circle cx="256" cy="256" r="250" fill="url(#b)"/>
  <circle cx="256" cy="256" r="228" fill="none" stroke="#37d6c0" stroke-width="12"/>
  <path fill="#0d0b16" d="M126 439c20-82 70-125 130-125s110 43 130 125z"/>
  <path fill="#e5197c" d="M180 438c8-54 37-86 76-86s68 32 76 86z"/>
  <circle cx="256" cy="232" r="89" fill="url(#s)"/>
  <path fill="#101018" d="M149 231c-4-82 49-139 121-134 51 4 89 39 98 92-60-18-112-38-173-5-11 19-25 34-46 47z"/>
  <path fill="#39f0ff" d="M185 140c37-48 107-60 157-16-55-4-101 14-157 16z"/>
  <path fill="#e5197c" d="M161 195c34-28 70-44 124-45-56 23-78 59-124 45z"/>
  <circle cx="221" cy="244" r="9" fill="#160b24"/><circle cx="292" cy="244" r="9" fill="#160b24"/>
  <path fill="none" stroke="#6d301d" stroke-linecap="round" stroke-width="9" d="M231 289c15 12 36 12 51 0"/>
  <path fill="none" stroke="#f5b301" stroke-linecap="round" stroke-width="14" d="M147 310c-22 23-22 51 0 74m218-74c22 23 22 51 0 74"/>
</svg>
